<svg width="18" height="17" viewBox="0 0 18 17" fill="none" xmlns="http://www.w3.org/2000/svg">
<path d="M9.81588 16.2143L8.73077 15.5907L11.2253 11.2253H14.967C15.2978 11.2253 15.6151 11.0939 15.849 10.86C16.0829 10.6261 16.2143 10.3088 16.2143 9.97802V2.49451C16.2143 2.16371 16.0829 1.84647 15.849 1.61256C15.6151 1.37866 15.2978 1.24725 14.967 1.24725H2.49451C2.16371 1.24725 1.84647 1.37866 1.61256 1.61256C1.37866 1.84647 1.24725 2.16371 1.24725 2.49451V9.97802C1.24725 10.3088 1.37866 10.6261 1.61256 10.86C1.84647 11.0939 2.16371 11.2253 2.49451 11.2253H8.10714V12.4725H2.49451C1.83292 12.4725 1.19843 12.2097 0.730624 11.7419C0.262813 11.2741 0 10.6396 0 9.97802V2.49451C0 1.83292 0.262813 1.19843 0.730624 0.730624C1.19843 0.262813 1.83292 0 2.49451 0H14.967C15.6286 0 16.2631 0.262813 16.7309 0.730624C17.1987 1.19843 17.4615 1.83292 17.4615 2.49451V9.97802C17.4615 10.6396 17.1987 11.2741 16.7309 11.7419C16.2631 12.2097 15.6286 12.4725 14.967 12.4725H11.9487L9.81588 16.2143Z" fill="#00004B"/>
<path d="M3.74194 3.74182H13.72V4.98907H3.74194V3.74182ZM3.74194 7.48358H9.97821V8.73083H3.74194V7.48358Z" fill="#00004B"/>
</svg>
