<svg width="22" height="22" viewBox="0 0 22 22" fill="none" xmlns="http://www.w3.org/2000/svg">
<path d="M17.7082 12.375H14.1561C13.6854 12.375 13.2338 12.5614 12.9002 12.8935C12.5666 13.2255 12.3781 13.6762 12.3759 14.1469V17.699C12.3759 18.1711 12.5635 18.6239 12.8973 18.9577C13.2312 19.2916 13.684 19.4791 14.1561 19.4791H17.7082C18.1787 19.4767 18.6292 19.2881 18.961 18.9545C19.2929 18.6209 19.4792 18.1695 19.4792 17.699V14.1469C19.4792 13.6772 19.2926 13.2267 18.9605 12.8946C18.6283 12.5625 18.1779 12.3759 17.7082 12.3759M7.84392 12.375H4.29184C3.82121 12.3776 3.37077 12.5665 3.03893 12.9002C2.70709 13.2339 2.52083 13.6854 2.52084 14.1561V17.7081C2.52084 18.1778 2.70742 18.6283 3.03955 18.9604C3.37168 19.2926 3.82214 19.4791 4.29184 19.4791H7.84392C8.31447 19.4792 8.76587 19.2929 9.09946 18.961C9.43304 18.6291 9.62166 18.1787 9.62409 17.7081V14.1561C9.62409 13.6839 9.43653 13.2311 9.10269 12.8973C8.76884 12.5634 8.31605 12.3759 7.84392 12.3759M7.84392 2.52081H4.29184C4.05927 2.52081 3.82897 2.56662 3.6141 2.65562C3.39924 2.74462 3.204 2.87507 3.03955 3.03953C2.8751 3.20398 2.74465 3.39921 2.65565 3.61408C2.56664 3.82895 2.52084 4.05924 2.52084 4.29181V7.8439C2.52083 8.31444 2.70712 8.76585 3.03899 9.09943C3.37086 9.43302 3.8213 9.62164 4.29184 9.62406H7.84392C8.31605 9.62406 8.76884 9.43651 9.10269 9.10266C9.43653 8.76882 9.62409 8.31603 9.62409 7.8439V4.29181C9.62166 3.82127 9.43304 3.37083 9.09946 3.03897C8.76587 2.7071 8.31447 2.52081 7.84392 2.52081ZM17.7082 2.52081H14.1561C13.6855 2.52081 13.2341 2.7071 12.9005 3.03897C12.567 3.37083 12.3783 3.82127 12.3759 4.29181V7.8439C12.3762 8.31595 12.5638 8.7686 12.8976 9.1024C13.2314 9.43619 13.684 9.62382 14.1561 9.62406H17.7082C18.1787 9.62164 18.6292 9.43302 18.961 9.09943C19.2929 8.76585 19.4792 8.31444 19.4792 7.8439V4.29181C19.4792 3.82211 19.2926 3.37165 18.9605 3.03953C18.6283 2.7074 18.1779 2.52081 17.7082 2.52081Z" stroke="#00004B" stroke-linecap="round" stroke-linejoin="round"/>
</svg>
