<svg width="28" height="28" viewBox="0 0 28 28" fill="none" xmlns="http://www.w3.org/2000/svg">
<path d="M23.6693 11.7262C24.7692 11.7262 25.6608 10.8345 25.6608 9.73466C25.6608 8.63479 24.7692 7.74316 23.6693 7.74316C22.5695 7.74316 21.6778 8.63479 21.6778 9.73466C21.6778 10.8345 22.5695 11.7262 23.6693 11.7262Z" fill="#00004B"/>
<path d="M21.6778 13.4319H25.6597V17.6972C25.6597 18.7962 24.7672 19.6875 23.6682 19.6875H21.6778V13.4319ZM2.34033 4.90002V23.1L15.4222 25.4089V2.59119L2.34033 4.90002ZM12.0097 11.2129L9.73466 11.27V17.9807H8.02783V11.3832L5.754 11.4975V9.96219L12.0097 9.62152V11.2129ZM16.5585 11.725V21.3944H18.8335C19.7762 21.3944 20.5403 20.6302 20.5403 19.6887V11.725H16.5585ZM18.2653 6.03752C17.5817 6.03752 16.9762 6.34552 16.5585 6.82269V9.80352C16.975 10.2807 17.5817 10.5887 18.2653 10.5887C18.8689 10.5887 19.4477 10.3489 19.8744 9.92218C20.3012 9.49543 20.5409 8.91663 20.5409 8.3131C20.5409 7.70958 20.3012 7.13078 19.8744 6.70402C19.4477 6.27727 18.8689 6.03752 18.2653 6.03752Z" fill="#00004B"/>
</svg>
