<svg width="20" height="20" viewBox="0 0 20 20" fill="none" xmlns="http://www.w3.org/2000/svg">
<g clip-path="url(#clip0_535_2939)">
<path d="M3.88889 3.33334H12.7778V8.77778H13.8889V3.33334C13.8889 3.03866 13.7718 2.75604 13.5635 2.54767C13.3551 2.33929 13.0725 2.22223 12.7778 2.22223H3.88889C3.5942 2.22223 3.31159 2.33929 3.10322 2.54767C2.89484 2.75604 2.77778 3.03866 2.77778 3.33334V16.6667C2.77778 16.9614 2.89484 17.244 3.10322 17.4523C3.31159 17.6607 3.5942 17.7778 3.88889 17.7778H12.7778C13.0725 17.7778 13.3551 17.6607 13.5635 17.4523C13.7718 17.244 13.8889 16.9614 13.8889 16.6667H3.88889V3.33334Z" fill="#00004B"/>
<path d="M15.6444 9.60002C15.5382 9.509 15.4015 9.46144 15.2616 9.46684C15.1218 9.47225 14.9892 9.53021 14.8902 9.62915C14.7913 9.72809 14.7333 9.86072 14.7279 10.0005C14.7225 10.1404 14.7701 10.2771 14.8611 10.3834L16.7389 12.2222H8.68333C8.53599 12.2222 8.39468 12.2808 8.2905 12.385C8.18631 12.4891 8.12778 12.6305 8.12778 12.7778C8.12778 12.9251 8.18631 13.0664 8.2905 13.1706C8.39468 13.2748 8.53599 13.3334 8.68333 13.3334H16.7389L14.8611 15.2556C14.803 15.3054 14.7557 15.3667 14.7224 15.4356C14.689 15.5045 14.6703 15.5796 14.6673 15.6561C14.6644 15.7326 14.6773 15.8089 14.7052 15.8802C14.7331 15.9515 14.7755 16.0162 14.8296 16.0704C14.8838 16.1245 14.9485 16.1669 15.0198 16.1948C15.0911 16.2227 15.1674 16.2356 15.2439 16.2327C15.3204 16.2297 15.3955 16.211 15.4644 16.1776C15.5334 16.1443 15.5946 16.0971 15.6444 16.0389L18.8889 12.8167L15.6444 9.60002Z" fill="#00004B"/>
</g>
<defs>
<clipPath id="clip0_535_2939">
<rect width="20" height="20" fill="white"/>
</clipPath>
</defs>
</svg>
