<svg width="16" height="16" viewBox="0 0 16 16" fill="none" xmlns="http://www.w3.org/2000/svg">
<path d="M12.0893 7.33331C12.4767 10.9166 14 12 14 12H2C2 12 4 10.578 4 5.59998C4 4.46865 4.42133 3.38331 5.17133 2.58331C5.92133 1.78331 6.94 1.33331 8 1.33331C8.22533 1.33331 8.44756 1.35331 8.66667 1.39331M9.15333 14C9.03613 14.202 8.86789 14.3697 8.66548 14.4863C8.46307 14.6029 8.23359 14.6643 8 14.6643C7.76641 14.6643 7.53693 14.6029 7.33452 14.4863C7.1321 14.3697 6.96387 14.202 6.84667 14M12.6667 5.33331C13.1971 5.33331 13.7058 5.1226 14.0809 4.74753C14.456 4.37245 14.6667 3.86375 14.6667 3.33331C14.6667 2.80288 14.456 2.29417 14.0809 1.9191C13.7058 1.54403 13.1971 1.33331 12.6667 1.33331C12.1362 1.33331 11.6275 1.54403 11.2525 1.9191C10.8774 2.29417 10.6667 2.80288 10.6667 3.33331C10.6667 3.86375 10.8774 4.37245 11.2525 4.74753C11.6275 5.1226 12.1362 5.33331 12.6667 5.33331Z" stroke="#00004B" stroke-width="1.2" stroke-linecap="round" stroke-linejoin="round"/>
</svg>
