<svg width="20" height="20" viewBox="0 0 20 20" fill="none" xmlns="http://www.w3.org/2000/svg">
<path d="M11.7325 1.25C11.8648 1.25 11.9937 1.292 12.1007 1.36995C12.2076 1.4479 12.287 1.55778 12.3275 1.68375L13.015 3.82C13.3037 3.96125 13.58 4.12 13.8437 4.29875L16.0387 3.82625C16.1682 3.79862 16.303 3.81278 16.4239 3.86669C16.5447 3.92061 16.6454 4.01149 16.7112 4.12625L18.4437 7.125C18.5099 7.2397 18.5379 7.37244 18.5238 7.50409C18.5096 7.63574 18.454 7.75949 18.365 7.8575L16.8587 9.52C16.8807 9.83879 16.8807 10.1587 16.8587 10.4775L18.365 12.1425C18.454 12.2405 18.5096 12.3643 18.5238 12.4959C18.5379 12.6276 18.5099 12.7603 18.4437 12.875L16.7112 15.875C16.6452 15.9895 16.5445 16.0802 16.4236 16.1338C16.3028 16.1875 16.168 16.2015 16.0387 16.1737L13.8437 15.7013C13.5812 15.8787 13.3037 16.0388 13.0162 16.18L12.3275 18.3162C12.287 18.4422 12.2076 18.5521 12.1007 18.63C11.9937 18.708 11.8648 18.75 11.7325 18.75H8.2675C8.13518 18.75 8.00627 18.708 7.89934 18.63C7.79242 18.5521 7.71299 18.4422 7.6725 18.3162L6.98625 16.1812C6.69828 16.0404 6.42052 15.8796 6.155 15.7L3.96125 16.1737C3.83183 16.2014 3.69698 16.1872 3.57612 16.1333C3.45527 16.0794 3.35465 15.9885 3.28875 15.8738L1.55625 12.875C1.49009 12.7603 1.46207 12.6276 1.47622 12.4959C1.49038 12.3643 1.54597 12.2405 1.635 12.1425L3.14125 10.4775C3.11942 10.1595 3.11942 9.84046 3.14125 9.5225L1.635 7.8575C1.54597 7.75949 1.49038 7.63574 1.47622 7.50409C1.46207 7.37244 1.49009 7.2397 1.55625 7.125L3.28875 4.125C3.35483 4.01047 3.45553 3.91984 3.57637 3.86616C3.69721 3.81248 3.83196 3.79851 3.96125 3.82625L6.155 4.3C6.42 4.12125 6.6975 3.96 6.98625 3.81875L7.67375 1.68375C7.71411 1.55818 7.79316 1.4486 7.89958 1.37069C8.00601 1.29278 8.13435 1.25053 8.26625 1.25H11.7312H11.7325ZM11.275 2.5H8.725L8.015 4.70875L7.53625 4.9425C7.30089 5.05767 7.07369 5.18881 6.85625 5.335L6.41375 5.635L4.14375 5.145L2.86875 7.355L4.425 9.0775L4.3875 9.6075C4.36953 9.86886 4.36953 10.1311 4.3875 10.3925L4.425 10.9225L2.86625 12.645L4.1425 14.855L6.4125 14.3663L6.855 14.665C7.07244 14.8112 7.29964 14.9423 7.535 15.0575L8.01375 15.2913L8.725 17.5H11.2775L11.99 15.29L12.4675 15.0575C12.7026 14.9426 12.9294 14.8115 13.1462 14.665L13.5875 14.3663L15.8587 14.855L17.1337 12.645L15.5762 10.9225L15.6137 10.3925C15.6318 10.1307 15.6318 9.86802 15.6137 9.60625L15.5762 9.07625L17.135 7.355L15.8587 5.145L13.5875 5.6325L13.1462 5.335C12.9294 5.18854 12.7026 5.05739 12.4675 4.9425L11.99 4.71L11.2762 2.5H11.275ZM10 6.25C10.9946 6.25 11.9484 6.64509 12.6516 7.34835C13.3549 8.05161 13.75 9.00544 13.75 10C13.75 10.9946 13.3549 11.9484 12.6516 12.6517C11.9484 13.3549 10.9946 13.75 10 13.75C9.00544 13.75 8.05161 13.3549 7.34835 12.6517C6.64509 11.9484 6.25 10.9946 6.25 10C6.25 9.00544 6.64509 8.05161 7.34835 7.34835C8.05161 6.64509 9.00544 6.25 10 6.25ZM10 7.5C9.33696 7.5 8.70107 7.76339 8.23223 8.23223C7.76339 8.70107 7.5 9.33696 7.5 10C7.5 10.663 7.76339 11.2989 8.23223 11.7678C8.70107 12.2366 9.33696 12.5 10 12.5C10.663 12.5 11.2989 12.2366 11.7678 11.7678C12.2366 11.2989 12.5 10.663 12.5 10C12.5 9.33696 12.2366 8.70107 11.7678 8.23223C11.2989 7.76339 10.663 7.5 10 7.5Z" fill="#00004B"/>
</svg>
